<svg width="12" height="13" viewBox="0 0 12 13" fill="none" xmlns="http://www.w3.org/2000/svg">
<path d="M1.00014 7.51562H5.21261V11.7281C5.21261 12.1562 5.5648 12.5153 5.99986 12.5153C6.43492 12.5153 6.78711 12.1562 6.78711 11.7281V7.51562H10.9996C11.4277 7.51562 11.7868 7.16343 11.7868 6.72838C11.7868 6.29332 11.4277 5.94113 10.9996 5.94113H6.78711V1.72866C6.78711 1.3005 6.43492 0.941406 5.99986 0.941406C5.5648 0.941406 5.21261 1.3005 5.21261 1.72866V5.94113H1.00014C0.571987 5.94113 0.212891 6.29332 0.212891 6.72838C0.212891 7.16343 0.571987 7.51562 1.00014 7.51562Z" fill="#015DFD"/>
</svg>
